<svg width="24" height="25" viewBox="0 0 24 25" fill="#ffffff" xmlns="http://www.w3.org/2000/svg">
<g id="Alert">
<path id="icon" fill-rule="evenodd" clip-rule="evenodd" d="M22.4415 16.2153L15.4362 4.2397C14.7329 3.02048 13.4221 2.26375 12.0045 2.26209C10.5867 2.26043 9.2754 3.01404 8.56336 4.23975L1.55543 16.2197C0.828751 17.4416 0.812312 18.9726 1.51618 20.2213C2.22063 21.471 3.53966 22.2487 4.9744 22.2604L19.0123 22.2604C20.4619 22.2463 21.7784 21.471 22.4828 20.2224C23.1863 18.9753 23.1706 17.4476 22.4415 16.2153ZM3.27808 17.2358L10.2912 5.24699C10.6464 4.63562 11.2978 4.26126 12.0021 4.26209C12.7064 4.26291 13.3576 4.63882 13.7068 5.24431L20.7177 17.2293C21.0852 17.8506 21.0931 18.6154 20.7408 19.2398C20.3881 19.865 19.7287 20.2534 19.0025 20.2605L4.98253 20.2604C4.27193 20.2546 3.61123 19.865 3.25844 19.2392C2.90604 18.614 2.91427 17.8475 3.27808 17.2358ZM12.0003 18.2604C12.5528 18.2604 13.0007 17.8127 13.0007 17.2604C13.0007 16.7081 12.5528 16.2604 12.0003 16.2604C11.4479 16.2604 11 16.7081 11 17.2604C11 17.8127 11.4479 18.2604 12.0003 18.2604ZM13.0036 8.26043H11.003V15.2604H13.0036V8.26043Z" fill="#ffffff"/>
</g>
</svg>
