<svg width="24" height="25" viewBox="0 0 24 25" fill="#ffffff" xmlns="http://www.w3.org/2000/svg">
<g id="Error">
<path id="icon" fill-rule="evenodd" clip-rule="evenodd" d="M12 23.2621C5.92487 23.2621 1 18.3372 1 12.2621C1 6.18695 5.92487 1.26208 12 1.26208C18.0751 1.26208 23 6.18695 23 12.2621C23 18.3372 18.0751 23.2621 12 23.2621ZM12 21.2621C16.9706 21.2621 21 17.2326 21 12.2621C21 7.29152 16.9706 3.26208 12 3.26208C7.02944 3.26208 3 7.29152 3 12.2621C3 17.2326 7.02944 21.2621 12 21.2621ZM8.70711 16.9692L12 13.6763L15.2929 16.9692L16.7071 15.555L13.4142 12.2621L16.7071 8.96919L15.2929 7.55498L12 10.8479L8.70711 7.55498L7.29289 8.96919L10.5858 12.2621L7.29289 15.555L8.70711 16.9692Z" fill="#ffffff"/>
</g>
</svg>
