<svg width="12" height="12" viewBox="0 0 12 12" fill="none" xmlns="http://www.w3.org/2000/svg">
<path fill-rule="evenodd" clip-rule="evenodd" d="M6 11.5C2.96243 11.5 0.5 9.03757 0.5 6C0.5 2.96243 2.96243 0.5 6 0.5C9.03757 0.5 11.5 2.96243 11.5 6C11.5 9.03757 9.03757 11.5 6 11.5ZM6 10.5C8.48528 10.5 10.5 8.48528 10.5 6C10.5 3.51472 8.48528 1.5 6 1.5C3.51472 1.5 1.5 3.51472 1.5 6C1.5 8.48528 3.51472 10.5 6 10.5ZM3.16836 6.48144L5.49674 6.49671L5.48147 8.82508L6.48145 8.83164L6.49672 6.50327L8.82509 6.51854L8.83165 5.51856L6.50328 5.50329L6.51855 3.17491L5.51857 3.16835L5.5033 5.49673L3.17492 5.48146L3.16836 6.48144Z" fill="#545454"/>
</svg>
